<?xml version="1.0" encoding="UTF-8" standalone="no"?>
<!DOCTYPE svg PUBLIC "-//W3C//DTD SVG 1.1//EN" "http://www.w3.org/Graphics/SVG/1.1/DTD/svg11.dtd">
<svg version="1.1" xmlns="http://www.w3.org/2000/svg" xmlns:xlink="http://www.w3.org/1999/xlink" preserveAspectRatio="xMidYMid meet" viewBox="199.0011856341835 199.0022700874379 154 153.99999999999997" width="150" height="150"><defs><path d="M281.15 200.25L284.17 200.56L287.16 200.98L290.11 201.53L293.02 202.18L295.88 202.95L298.7 203.83L301.47 204.81L304.18 205.9L306.85 207.09L309.46 208.38L312.01 209.76L314.5 211.25L316.92 212.82L319.28 214.48L321.58 216.23L323.8 218.07L325.95 219.98L328.02 221.98L330.02 224.05L331.94 226.2L333.77 228.43L335.52 230.72L337.19 233.08L338.76 235.51L340.24 238L341.62 240.55L342.91 243.16L344.1 245.82L345.19 248.54L346.17 251.31L347.05 254.12L347.82 256.99L348.48 259.9L349.02 262.84L349.44 265.83L349.75 268.85L349.94 271.91L350 275L349.94 278.09L349.75 281.15L349.44 284.17L349.02 287.16L348.48 290.11L347.82 293.02L347.05 295.88L346.17 298.7L345.19 301.47L344.1 304.18L342.91 306.85L341.62 309.46L340.24 312.01L338.76 314.5L337.19 316.92L335.52 319.28L333.77 321.58L331.94 323.8L330.02 325.95L328.02 328.02L325.95 330.02L323.8 331.94L321.58 333.77L319.28 335.52L316.92 337.19L314.5 338.76L312.01 340.24L309.46 341.63L306.85 342.91L304.18 344.1L301.47 345.19L298.7 346.18L295.88 347.05L293.02 347.82L290.11 348.48L287.16 349.02L284.17 349.45L281.15 349.75L278.09 349.94L275 350L271.91 349.94L268.85 349.75L265.83 349.45L262.84 349.02L259.89 348.48L256.99 347.82L254.12 347.05L251.31 346.18L248.54 345.19L245.82 344.1L243.16 342.91L240.55 341.63L238 340.24L235.51 338.76L233.08 337.19L230.72 335.52L228.43 333.77L226.2 331.94L224.05 330.02L221.98 328.02L219.98 325.95L218.06 323.8L216.23 321.58L214.48 319.28L212.82 316.92L211.24 314.5L209.76 312.01L208.38 309.46L207.09 306.85L205.9 304.18L204.81 301.47L203.83 298.7L202.95 295.88L202.18 293.02L201.53 290.11L200.98 287.16L200.56 284.17L200.25 281.15L200.06 278.09L200 275L200.06 271.91L200.25 268.85L200.56 265.83L200.98 262.84L201.53 259.9L202.18 256.99L202.95 254.12L203.83 251.31L204.81 248.54L205.9 245.82L207.09 243.16L208.38 240.55L209.76 238L211.24 235.51L212.82 233.08L214.48 230.72L216.23 228.43L218.06 226.2L219.98 224.05L221.98 221.98L224.05 219.98L226.2 218.07L228.43 216.23L230.72 214.48L233.08 212.82L235.51 211.25L238 209.76L240.55 208.38L243.16 207.09L245.82 205.9L248.54 204.81L251.31 203.83L254.12 202.95L256.99 202.18L259.89 201.53L262.84 200.98L265.83 200.56L268.85 200.25L271.91 200.06L275 200L278.09 200.06L281.15 200.25ZM242.94 225L225 242.94L257.05 275L225 307.05L242.94 325L275 292.94L307.05 325L325 307.05L292.94 275L325 242.94L307.05 225L275 257.05L242.94 225Z" id="cPQLl4iB0"></path></defs><g><g><use xlink:href="#cPQLl4iB0" opacity="1" fill="#222222" fill-opacity="1"></use></g></g></svg>