<?xml version="1.0" encoding="UTF-8" standalone="no" ?>
<!DOCTYPE svg PUBLIC "-//W3C//DTD SVG 1.1//EN" "http://www.w3.org/Graphics/SVG/1.1/DTD/svg11.dtd">
<svg xmlns="http://www.w3.org/2000/svg" xmlns:xlink="http://www.w3.org/1999/xlink" version="1.1" width="150" height="150" viewBox="0 0 150 150" xml:space="preserve">
<desc>Created with Fabric.js 4.6.0</desc>
<defs>
</defs>
<g transform="matrix(1 0 0 1 75 75)" id="m_QiorM8dfT1nvyUc_vqq"  >
<path style="stroke: rgb(16,143,80); stroke-width: 0; stroke-dasharray: none; stroke-linecap: butt; stroke-dashoffset: 0; stroke-linejoin: miter; stroke-miterlimit: 4; fill: rgb(34,34,34); fill-rule: nonzero; opacity: 1;" vector-effect="non-scaling-stroke"  transform=" translate(-67.5, -67.5)" d="M 59.0625 0 L 75.9375 0 L 75.9375 17.57598 C 83.6262 18.867630000000002 90.72876 21.894360000000002 96.82829 26.23928 L 109.26348999999999 13.80408 L 121.19591999999999 25.7365 L 108.76071999999999 38.1717 C 113.10564 44.27122 116.13238 51.3738 117.42402999999999 59.0625 L 135.00000999999997 59.0625 L 135.00000999999997 75.9375 L 117.42402999999997 75.9375 C 116.13237999999997 83.6262 113.10564999999997 90.72876 108.76072999999997 96.82829 L 121.19592999999996 109.26348999999999 L 109.26350999999997 121.19591999999999 L 96.82830999999997 108.76071999999999 C 90.72877999999997 113.10564 83.62620999999997 116.13238 75.93750999999997 117.42402999999999 L 75.93750999999997 135.00000999999997 L 59.062509999999975 135.00000999999997 L 59.062509999999975 117.42402999999997 C 51.37380999999998 116.13237999999997 44.271249999999974 113.10564999999997 38.171709999999976 108.76072999999997 L 25.736509999999974 121.19592999999996 L 13.804089999999974 109.26350999999997 L 26.239289999999976 96.82830999999997 C 21.894369999999974 90.72877999999997 18.867629999999977 83.62620999999997 17.575989999999976 75.93750999999997 L 0.000009999999974752427 75.93750999999997 L 0.000009999999974752427 59.062509999999975 L 17.575989999999976 59.062509999999975 C 18.867639999999977 51.37380999999998 21.894369999999977 44.271249999999974 26.239289999999976 38.171709999999976 L 13.804089999999976 25.736509999999974 L 25.736509999999974 13.804089999999974 L 38.171709999999976 26.239289999999976 C 44.27123999999998 21.894369999999974 51.37380999999998 18.867629999999977 59.062509999999975 17.575989999999976 z M 33.75 67.5 C 33.75 86.13 48.87 101.25 67.5 101.25 C 73.75634 101.25 79.61683 99.54484 84.64179 96.57421 L 84.64178 96.57419999999999 C 89.55508999999999 93.66957 93.66958 89.55508999999999 96.57419999999999 84.64177999999998 L 96.57419999999999 84.64177999999998 C 99.54482999999999 79.61682999999998 101.24999 73.75633999999998 101.24999 67.50000999999997 C 101.24999 61.24366999999997 99.54482999999999 55.383179999999975 96.57419999999999 50.358219999999974 L 96.57418999999999 50.35822999999998 C 93.66955999999999 45.444919999999975 89.55507999999999 41.33042999999998 84.64176999999998 38.42579999999998 L 84.64176999999998 38.42579999999998 C 79.61681999999998 35.45516999999998 73.75632999999998 33.75000999999998 67.49999999999997 33.75000999999998 C 48.869999999999976 33.75000999999998 33.74999999999997 48.87000999999998 33.74999999999997 67.50000999999997 z" stroke-linecap="round" />
</g>
</svg>