<?xml version="1.0" encoding="UTF-8" standalone="no"?>
<!DOCTYPE svg PUBLIC "-//W3C//DTD SVG 1.1//EN" "http://www.w3.org/Graphics/SVG/1.1/DTD/svg11.dtd">
<svg version="1.1" xmlns="http://www.w3.org/2000/svg" xmlns:xlink="http://www.w3.org/1999/xlink" preserveAspectRatio="xMidYMid meet" viewBox="198.9980577124507 198.99958458875912 154 154.00000000000003" width="150" height="150"><defs><path d="M281.15 200.25L284.17 200.56L287.16 200.98L290.11 201.52L293.01 202.18L295.88 202.95L298.69 203.83L301.46 204.81L304.18 205.9L306.84 207.09L309.45 208.38L312 209.76L314.49 211.24L316.92 212.82L319.28 214.48L321.57 216.23L323.8 218.06L325.95 219.98L328.02 221.98L330.02 224.05L331.93 226.2L333.77 228.42L335.52 230.72L337.18 233.08L338.75 235.51L340.24 237.99L341.62 240.54L342.91 243.15L344.1 245.82L345.19 248.54L346.17 251.3L347.05 254.12L347.82 256.99L348.47 259.89L349.02 262.84L349.44 265.83L349.75 268.85L349.94 271.91L350 275L349.94 278.09L349.75 281.15L349.44 284.17L349.02 287.16L348.47 290.11L347.82 293.01L347.05 295.88L346.17 298.69L345.19 301.46L344.1 304.18L342.91 306.85L341.62 309.45L340.24 312L338.75 314.49L337.18 316.92L335.52 319.28L333.77 321.57L331.93 323.8L330.02 325.95L328.02 328.02L325.95 330.02L323.8 331.94L321.57 333.77L319.28 335.52L316.92 337.18L314.49 338.76L312 340.24L309.45 341.62L306.84 342.91L304.18 344.1L301.46 345.19L298.69 346.17L295.88 347.05L293.01 347.82L290.11 348.47L287.16 349.02L284.17 349.44L281.15 349.75L278.09 349.94L275 350L271.91 349.94L268.85 349.75L265.83 349.44L262.84 349.02L259.89 348.47L256.98 347.82L254.12 347.05L251.3 346.17L248.53 345.19L245.82 344.1L243.15 342.91L240.54 341.62L237.99 340.24L235.5 338.76L233.08 337.18L230.72 335.52L228.42 333.77L226.2 331.94L224.05 330.02L221.98 328.02L219.98 325.95L218.06 323.8L216.23 321.57L214.48 319.28L212.81 316.92L211.24 314.49L209.76 312L208.37 309.45L207.09 306.85L205.9 304.18L204.81 301.46L203.82 298.69L202.95 295.88L202.18 293.01L201.52 290.11L200.98 287.16L200.55 284.17L200.25 281.15L200.06 278.09L200 275L200.06 271.91L200.25 268.85L200.55 265.83L200.98 262.84L201.52 259.89L202.18 256.99L202.95 254.12L203.82 251.3L204.81 248.54L205.9 245.82L207.09 243.15L208.37 240.54L209.76 237.99L211.24 235.51L212.81 233.08L214.48 230.72L216.23 228.42L218.06 226.2L219.98 224.05L221.98 221.98L224.05 219.98L226.2 218.06L228.42 216.23L230.72 214.48L233.08 212.82L235.5 211.24L237.99 209.76L240.54 208.38L243.15 207.09L245.82 205.9L248.53 204.81L251.3 203.83L254.12 202.95L256.98 202.18L259.89 201.52L262.84 200.98L265.83 200.56L268.85 200.25L271.91 200.06L275 200L278.09 200.06L281.15 200.25ZM243.53 264.12L225 282.83L259.34 317.5L277.87 298.78L277.87 298.78L325 251.21L306.46 232.5L259.33 280.06L243.53 264.12Z" id="a10utILbj"></path></defs><g><g><use xlink:href="#a10utILbj" opacity="1" fill="#222222" fill-opacity="1"></use></g></g></svg>