<?xml version="1.0" encoding="UTF-8" standalone="no"?>
<!DOCTYPE svg PUBLIC "-//W3C//DTD SVG 1.1//EN" "http://www.w3.org/Graphics/SVG/1.1/DTD/svg11.dtd">
<svg version="1.1" xmlns="http://www.w3.org/2000/svg" xmlns:xlink="http://www.w3.org/1999/xlink" preserveAspectRatio="xMidYMid meet" viewBox="199 199 153.99999999999994 153.99999999999994" width="150" height="150"><defs><path d="M281.15 200.25L284.17 200.56L287.16 200.98L290.11 201.52L293.01 202.18L295.88 202.95L298.7 203.83L301.46 204.81L304.18 205.9L306.85 207.09L309.45 208.38L312 209.76L314.49 211.24L316.92 212.82L319.28 214.48L321.58 216.23L323.8 218.06L325.95 219.98L328.02 221.98L330.02 224.05L331.94 226.2L333.77 228.42L335.52 230.72L337.18 233.08L338.76 235.51L340.24 238L341.62 240.55L342.91 243.15L344.1 245.82L345.19 248.54L346.17 251.3L347.05 254.12L347.82 256.99L348.48 259.89L349.02 262.84L349.44 265.83L349.75 268.85L349.94 271.91L350 275L349.94 278.09L349.75 281.15L349.44 284.17L349.02 287.16L348.48 290.11L347.82 293.01L347.05 295.88L346.17 298.7L345.19 301.46L344.1 304.18L342.91 306.85L341.62 309.45L340.24 312L338.76 314.49L337.18 316.92L335.52 319.28L333.77 321.58L331.94 323.8L330.02 325.95L328.02 328.02L325.95 330.02L323.8 331.94L321.58 333.77L319.28 335.52L316.92 337.18L314.49 338.76L312 340.24L309.45 341.62L306.85 342.91L304.18 344.1L301.46 345.19L298.7 346.17L295.88 347.05L293.01 347.82L290.11 348.48L287.16 349.02L284.17 349.44L281.15 349.75L278.09 349.94L275 350L271.91 349.94L268.85 349.75L265.83 349.44L262.84 349.02L259.89 348.48L256.99 347.82L254.12 347.05L251.3 346.17L248.54 345.19L245.82 344.1L243.15 342.91L240.55 341.62L238 340.24L235.51 338.76L233.08 337.18L230.72 335.52L228.42 333.77L226.2 331.94L224.05 330.02L221.98 328.02L219.98 325.95L218.06 323.8L216.23 321.58L214.48 319.28L212.82 316.92L211.24 314.49L209.76 312L208.38 309.45L207.09 306.85L205.9 304.18L204.81 301.46L203.83 298.7L202.95 295.88L202.18 293.01L201.52 290.11L200.98 287.16L200.56 284.17L200.25 281.15L200.06 278.09L200 275L200.06 271.91L200.25 268.85L200.56 265.83L200.98 262.84L201.52 259.89L202.18 256.99L202.95 254.12L203.83 251.3L204.81 248.54L205.9 245.82L207.09 243.15L208.38 240.55L209.76 238L211.24 235.51L212.82 233.08L214.48 230.72L216.23 228.42L218.06 226.2L219.98 224.05L221.98 221.98L224.05 219.98L226.2 218.06L228.42 216.23L230.72 214.48L233.08 212.82L235.51 211.24L238 209.76L240.55 208.38L243.15 207.09L245.82 205.9L248.54 204.81L251.3 203.83L254.12 202.95L256.99 202.18L259.89 201.52L262.84 200.98L265.83 200.56L268.85 200.25L271.91 200.06L275 200L278.09 200.06L281.15 200.25ZM265.68 218.25L263.42 218.66L261.19 219.17L258.99 219.76L256.83 220.43L254.71 221.18L252.63 222.02L250.58 222.93L248.58 223.92L246.63 224.98L244.72 226.12L242.86 227.32L241.05 228.6L239.29 229.94L237.59 231.34L235.94 232.81L234.35 234.34L232.82 235.94L231.35 237.58L229.94 239.29L228.6 241.05L227.33 242.86L226.12 244.72L224.98 246.63L223.92 248.58L222.93 250.58L222.02 252.62L221.19 254.71L220.43 256.83L219.76 258.99L219.17 261.18L218.67 263.41L218.25 265.67L217.93 267.96L217.69 270.28L217.55 272.63L217.5 275L217.55 277.36L217.69 279.71L217.93 282.03L218.25 284.32L218.67 286.58L219.17 288.81L219.76 291L220.43 293.16L221.19 295.28L222.02 297.37L222.93 299.41L223.92 301.41L224.98 303.37L226.12 305.27L227.33 307.13L228.6 308.95L229.94 310.7L231.35 312.41L232.82 314.06L234.35 315.65L235.94 317.18L237.59 318.65L239.29 320.05L241.05 321.4L242.86 322.67L244.72 323.88L246.63 325.01L248.58 326.07L250.58 327.06L252.63 327.97L254.71 328.81L256.83 329.56L258.99 330.23L261.19 330.82L263.42 331.33L265.68 331.74L267.97 332.07L270.29 332.3L272.63 332.45L275 332.5L277.37 332.45L279.71 332.3L282.03 332.07L284.32 331.74L286.58 331.33L288.81 330.82L291.01 330.23L293.17 329.56L295.29 328.81L297.37 327.97L299.42 327.06L301.42 326.07L303.37 325.01L305.28 323.88L307.14 322.67L308.95 321.4L310.71 320.05L312.41 318.65L314.06 317.18L315.65 315.65L317.18 314.06L318.65 312.41L320.06 310.7L321.4 308.95L322.67 307.13L323.88 305.27L325.02 303.37L326.08 301.41L327.07 299.41L327.98 297.37L328.81 295.28L329.57 293.16L330.24 291L330.83 288.81L331.33 286.58L331.75 284.32L332.07 282.03L332.31 279.71L332.45 277.36L332.5 275L332.45 272.63L332.31 270.28L332.07 267.96L331.75 265.67L331.33 263.41L330.83 261.18L330.24 258.99L329.57 256.83L328.81 254.71L327.98 252.62L327.07 250.58L326.08 248.58L325.02 246.63L323.88 244.72L322.67 242.86L321.4 241.05L320.06 239.29L318.65 237.58L317.18 235.94L315.65 234.34L314.06 232.81L312.41 231.34L310.71 229.94L308.95 228.6L307.14 227.32L305.28 226.12L303.37 224.98L301.42 223.92L299.45 222.94L270 265L270 217.72L267.97 217.92L265.68 218.25Z" id="d6swJu84No"></path></defs><g><g><use xlink:href="#d6swJu84No" opacity="1" fill="#222222" fill-opacity="1"></use></g></g></svg>