<?xml version="1.0" standalone="no"?>
<!DOCTYPE svg PUBLIC "-//W3C//DTD SVG 20010904//EN"
 "http://www.w3.org/TR/2001/REC-SVG-20010904/DTD/svg10.dtd">
<svg version="1.0" xmlns="http://www.w3.org/2000/svg"
 width="700.000000pt" height="700.000000pt" viewBox="0 0 700.000000 700.000000"
 preserveAspectRatio="xMidYMid meet">
<metadata>
Created by potrace 1.14, written by Peter Selinger 2001-2017
</metadata>
<g transform="translate(0.000000,700.000000) scale(0.100000,-0.100000)"
fill="#000000" stroke="none">
<path d="M277 5733 c-95 -20 -193 -79 -250 -151 l-27 -35 0 -2047 0 -2047 27
-35 c60 -77 170 -140 268 -155 34 -5 1459 -8 3235 -8 3065 1 3177 2 3230 19
80 27 162 83 213 144 l27 34 0 2048 0 2048 -27 34 c-54 64 -138 120 -219 144
-56 17 -224 18 -3238 18 -2457 1 -3193 -2 -3239 -11z m6422 -304 c76 -43 76
-43 79 -336 l3 -263 -3279 0 -3280 0 -1 246 c-1 285 4 308 73 349 l41 25 3164
0 3163 0 37 -21z m80 -2235 c0 -1652 3 -1559 -55 -1609 -15 -13 -40 -26 -57
-29 -16 -3 -1447 -6 -3179 -6 l-3149 0 -40 21 c-29 14 -46 32 -59 62 -18 40
-19 105 -19 1560 l0 1517 3280 0 3279 0 -1 -1516z"/>
<path d="M400 5372 c-66 -34 -81 -47 -113 -96 -28 -44 -32 -58 -32 -120 0 -53
5 -80 20 -106 61 -108 172 -153 289 -118 54 16 131 92 147 147 l12 42 13 -36
c26 -77 84 -135 155 -155 122 -35 243 25 288 143 11 29 20 46 20 39 2 -27 40
-98 68 -123 48 -46 103 -69 161 -69 122 0 218 83 237 206 15 92 -42 194 -134
240 -46 22 -64 26 -111 21 -103 -9 -188 -74 -211 -162 l-11 -40 -20 52 c-24
64 -89 125 -153 143 -119 33 -240 -29 -285 -146 l-18 -49 -8 30 c-8 35 -43 93
-70 117 -59 53 -180 72 -244 40z m128 -174 c34 -43 10 -100 -42 -100 -48 0
-73 57 -39 94 18 21 66 24 81 6z m478 -13 c20 -31 15 -53 -18 -78 l-28 -21
-27 21 c-16 11 -29 30 -31 42 -8 55 73 83 104 36z m474 1 c26 -50 -14 -104
-65 -86 -11 4 -26 19 -33 34 -12 23 -11 31 2 52 23 34 77 34 96 0z"/>
<path d="M4368 5369 c-46 -24 -71 -53 -117 -139 -35 -66 -43 -75 -68 -75 l-28
-1 -3 -83 c-2 -54 1 -87 8 -91 18 -11 91 0 131 21 40 20 79 70 123 157 14 28
28 52 30 52 2 0 23 -35 46 -77 67 -124 125 -163 222 -150 58 8 104 50 157 145
25 44 49 78 53 74 3 -4 22 -36 41 -71 67 -124 138 -169 230 -146 60 15 105 58
148 139 50 96 47 95 91 14 64 -118 115 -158 200 -158 75 0 125 41 186 154 18
34 37 64 41 69 4 4 23 -22 42 -58 63 -122 115 -165 198 -165 84 0 140 48 206
179 l27 54 17 -29 c10 -16 30 -50 45 -76 51 -91 100 -125 182 -130 l49 -3 3
91 3 90 -29 -2 c-26 -2 -33 6 -78 84 -59 104 -101 140 -170 148 -90 11 -149
-33 -214 -159 -19 -37 -37 -67 -40 -67 -4 0 -27 37 -51 83 -53 96 -108 141
-178 145 -84 5 -145 -46 -211 -176 -12 -23 -26 -44 -30 -47 -5 -3 -25 26 -45
64 -43 82 -84 127 -131 147 -99 41 -186 -8 -259 -148 -20 -37 -40 -66 -45 -63
-4 3 -23 35 -41 71 -41 82 -102 139 -156 149 -94 15 -170 -36 -232 -158 -18
-37 -37 -64 -42 -61 -5 3 -21 29 -35 57 -75 147 -173 199 -276 146z"/>
<path d="M3763 4482 c-13 -2 -23 -9 -23 -15 0 -8 -3 -7 -9 2 -13 19 -92 -18
-136 -65 -58 -61 -64 -100 -64 -428 0 -159 -2 -290 -4 -292 -2 -2 -424 -5
-938 -6 l-934 -3 -48 -25 c-27 -13 -61 -40 -76 -60 -52 -68 -54 -82 -54 -510
0 -375 1 -398 20 -441 11 -25 37 -62 58 -82 72 -70 25 -67 1052 -67 l923 0 0
-52 c1 -29 1 -162 1 -295 1 -146 5 -258 12 -280 37 -129 169 -200 298 -162 42
13 54 22 669 493 469 359 593 454 806 616 140 107 173 142 194 204 16 49 8
131 -18 182 -23 45 -48 68 -157 150 -43 32 -86 65 -95 71 -8 7 -127 99 -265
204 -137 105 -261 199 -275 210 -14 11 -101 78 -195 149 -93 71 -174 133 -180
137 -12 10 -188 145 -305 234 -47 36 -99 75 -117 87 -38 27 -109 49 -140 44z
m109 -389 c19 -16 48 -38 64 -50 25 -19 695 -531 764 -584 14 -11 128 -98 253
-194 125 -95 227 -177 225 -182 -1 -4 -187 -149 -413 -322 -225 -173 -510
-391 -633 -485 -123 -94 -241 -184 -263 -199 l-39 -28 0 43 c-1 24 -2 189 -3
368 l-2 325 -1025 0 -1025 1 0 299 0 300 1025 0 1025 0 2 340 c3 419 2 395 7
395 2 0 19 -12 38 -27z"/>
</g>
</svg>
